<svg width="70" height="59" viewBox="0 0 70 59" fill="none" xmlns="http://www.w3.org/2000/svg">
<path d="M69.4369 41.7885C69.4369 49.2415 63.395 55.2834 55.942 55.2834C48.489 55.2834 42.4472 49.2415 42.4472 41.7885C42.4472 34.3355 48.489 28.2937 55.942 28.2937C63.395 28.2937 69.4369 34.3355 69.4369 41.7885ZM50.4293 41.7885C50.4293 44.8331 52.8974 47.3013 55.942 47.3013C58.9866 47.3013 61.4548 44.8331 61.4548 41.7885C61.4548 38.7439 58.9866 36.2758 55.942 36.2758C52.8974 36.2758 50.4293 38.7439 50.4293 41.7885Z" fill="#FF7622"/>
<path d="M38.3988 41.7885C38.3988 49.2415 32.3569 55.2834 24.904 55.2834C17.451 55.2834 11.4091 49.2415 11.4091 41.7885C11.4091 34.3355 17.451 28.2937 24.904 28.2937C32.3569 28.2937 38.3988 34.3355 38.3988 41.7885ZM19.3912 41.7885C19.3912 44.8331 21.8593 47.3013 24.904 47.3013C27.9486 47.3013 30.4167 44.8331 30.4167 41.7885C30.4167 38.7439 27.9486 36.2758 24.904 36.2758C21.8593 36.2758 19.3912 38.7439 19.3912 41.7885Z" fill="#FF7622"/>
<path fill-rule="evenodd" clip-rule="evenodd" d="M5.39801 51.2409C5.39801 50.9957 5.59676 50.797 5.84192 50.797H12.6012C12.8463 50.797 13.0451 50.9957 13.0451 51.2409C13.0451 51.486 12.8463 51.6848 12.6012 51.6848H5.84192C5.59676 51.6848 5.39801 51.486 5.39801 51.2409Z" fill="#FF7622"/>
<path fill-rule="evenodd" clip-rule="evenodd" d="M36.4768 51.2409C36.4768 50.9957 36.6756 50.797 36.9207 50.797H43.68C43.9251 50.797 44.1239 50.9957 44.1239 51.2409C44.1239 51.486 43.9251 51.6848 43.68 51.6848H36.9207C36.6756 51.6848 36.4768 51.486 36.4768 51.2409Z" fill="#FF7622"/>
<path fill-rule="evenodd" clip-rule="evenodd" d="M-3.88078e-08 54.8394C-1.73748e-08 54.5943 0.198745 54.3955 0.443909 54.3955L12.6011 54.3955C12.8463 54.3955 13.045 54.5943 13.045 54.8394C13.045 55.0846 12.8463 55.2833 12.6011 55.2833L0.443909 55.2833C0.198745 55.2833 -6.02407e-08 55.0846 -3.88078e-08 54.8394Z" fill="#FF7622"/>
<path fill-rule="evenodd" clip-rule="evenodd" d="M31.0791 54.8394C31.0791 54.5943 31.2778 54.3955 31.523 54.3955L43.6802 54.3955C43.9254 54.3955 44.1241 54.5943 44.1241 54.8394C44.1241 55.0846 43.9254 55.2833 43.6802 55.2833L31.523 55.2833C31.2778 55.2833 31.0791 55.0846 31.0791 54.8394Z" fill="#FF7622"/>
<path fill-rule="evenodd" clip-rule="evenodd" d="M5.39801 58.4381C5.39801 58.1929 5.59676 57.9942 5.84192 57.9942L17.9991 57.9942C18.2443 57.9942 18.443 58.1929 18.443 58.4381C18.443 58.6832 18.2443 58.882 17.9991 58.882L5.84192 58.882C5.59676 58.882 5.39801 58.6832 5.39801 58.4381Z" fill="#FF7622"/>
<path fill-rule="evenodd" clip-rule="evenodd" d="M36.4768 58.4381C36.4768 58.1929 36.6756 57.9942 36.9207 57.9942L49.0779 57.9942C49.3231 57.9942 49.5218 58.1929 49.5218 58.4381C49.5218 58.6832 49.3231 58.882 49.0779 58.882L36.9207 58.882C36.6756 58.882 36.4768 58.6832 36.4768 58.4381Z" fill="#FF7622"/>
<path d="M60.354 26.7422C61.438 26.7422 62.3261 25.8615 62.2266 24.7821C61.771 19.8401 59.6032 15.1875 56.065 11.6492C52.0621 7.64633 46.633 5.39752 40.972 5.39752C35.311 5.39752 29.8819 7.64633 25.879 11.6492C22.3407 15.1875 20.173 19.8401 19.7174 24.7821C19.6179 25.8615 20.506 26.7422 21.59 26.7422L40.972 26.7422H60.354Z" fill="#FF7622"/>
<path d="M43.6708 3.92548C43.6708 5.55146 42.4626 6.86958 40.9721 6.86958C39.4816 6.86958 38.2733 5.55146 38.2733 3.92548C38.2733 2.2995 39.4816 0.981384 40.9721 0.981384C42.4626 0.981384 43.6708 2.2995 43.6708 3.92548Z" fill="white"/>
<path fill-rule="evenodd" clip-rule="evenodd" d="M40.9721 1.96273C40.1022 1.96273 39.2547 2.75935 39.2547 3.92547C39.2547 5.09158 40.1022 5.8882 40.9721 5.8882C41.8419 5.8882 42.6894 5.09158 42.6894 3.92547C42.6894 2.75935 41.8419 1.96273 40.9721 1.96273ZM37.2919 3.92547C37.2919 1.83962 38.8609 0 40.9721 0C43.0832 0 44.6522 1.83962 44.6522 3.92547C44.6522 6.01131 43.0832 7.85093 40.9721 7.85093C38.8609 7.85093 37.2919 6.01131 37.2919 3.92547Z" fill="#FF7622"/>
<path d="M32.2564 12.0222C32.0183 11.6268 31.5052 11.4947 31.1182 11.7462C28.1923 13.6475 25.8959 16.3541 24.5141 19.5294C24.3256 19.9627 24.5528 20.4572 24.9963 20.6203V20.6203C25.4341 20.7814 25.9178 20.5583 26.1057 20.1313C27.3456 17.3144 29.3825 14.9088 31.9719 13.2035C32.364 12.9452 32.4986 12.4244 32.2564 12.0222V12.0222Z" fill="white"/>
<path d="M35.6666 10.4994C35.5212 10.0611 35.0488 9.82009 34.6163 9.98201C34.1529 10.1555 33.6971 10.3478 33.25 10.5586C32.8256 10.7586 32.6714 11.2764 32.896 11.6882V11.6882C33.1169 12.0934 33.6219 12.2432 34.0401 12.048C34.3988 11.8807 34.7635 11.7263 35.1336 11.5854C35.5702 11.4191 35.8136 10.9428 35.6666 10.4994V10.4994Z" fill="white"/>
</svg>
